<svg xmlns="http://www.w3.org/2000/svg" viewBox="0 0 512 512">
  <title>Asset 1@41x</title>
  <g id="Layer_2" data-name="Layer 2">
    <g id="Capa_1" data-name="Capa 1">
      <path d="M256,0C114.844,0,0,114.844,0,256S114.844,512,256,512,512,397.156,512,256,397.156,0,256,0Zm0,74.667A122.6665,122.6665,0,1,1,133.333,197.333,122.81017,122.81017,0,0,1,256,74.667Zm0,394.666c-69.707,0-131.52-33.755-170.473-85.615C128.203,363.184,189.148,341.333,256,341.333c66.857,0,127.807,21.854,170.474,42.383C387.521,435.577,325.708,469.333,256,469.333Z"/>
    </g>
  </g>
</svg>
